<svg viewBox="0 0 50 50" xmlns="http://www.w3.org/2000/svg"><path d="m22 0c-1.644531 0-3 1.355469-3 3v3c0 .523438.183594 1.058594.5625 1.4375.28125.28125.640625.460938 1.03125.53125-.148437.117188-.332031.207031-.5625.25h-.03125c-4.542969.996094-8 5.003906-8 9.875v2.90625c0 1.257813.890625 2.152344 2 2.59375v12.8125c-1.109375.441406-2 1.335938-2 2.59375v6c0 2.746094 2.253906 5 5 5h16c2.746094 0 5-2.253906 5-5v-6c0-1.257812-.890625-2.152344-2-2.59375v-12.8125c1.109375-.441406 2-1.335937 2-2.59375v-2.90625c0-4.871094-3.457031-8.878906-8-9.875h-.03125c-.230469-.042969-.414062-.132812-.5625-.25.390625-.070312.75-.25 1.03125-.53125.378906-.378906.5625-.914062.5625-1.4375v-3c0-1.644531-1.355469-3-3-3zm0 2h6c.554688 0 1 .445313 1 1v3h-8v-3c0-.554687.445313-1 1-1zm.65625 6h4.6875c.363281 1.046875 1.101563 1.929688 2.25 2.15625v.03125h.03125c3.644531.8125 6.375 3.988281 6.375 7.90625v2.90625c0 .554688-.445312 1-1 1h-17v2h16v12h-16v2h17c.554688 0 1 .445313 1 1v6c0 1.65625-1.34375 3-3 3h-16c-1.65625 0-3-1.34375-3-3v-6c0-.554687.445313-1 1-1h1v-16h-1c-.554687 0-1-.445312-1-1v-2.90625c0-3.917969 2.730469-7.09375 6.375-7.90625.015625-.003906.015625-.027344.03125-.03125 1.148438-.226562 1.886719-1.109375 2.25-2.15625z"/></svg>